<svg xmlns="http://www.w3.org/2000/svg" viewBox="0 0 800 1200" width="2400" height="3600">
  <!-- birthday-festive-confetti-01: White frame, coral border, scattered colorful confetti shapes, star ornament -->

  <!-- White border area — center (x=20,y=20,w=760,h=860) stays transparent -->
  <rect x="0"   y="0"    width="800" height="20"  fill="#ffffff"/>
  <rect x="0"   y="880"  width="800" height="320" fill="#ffffff"/>
  <rect x="0"   y="20"   width="20"  height="860" fill="#ffffff"/>
  <rect x="780" y="20"   width="20"  height="860" fill="#ffffff"/>

  <!-- Outer coral border -->
  <rect x="0"   y="0"    width="800" height="2.5"  fill="#e07060"/>
  <rect x="0"   y="1197.5" width="800" height="2.5" fill="#e07060"/>
  <rect x="0"   y="0"    width="2.5" height="1200" fill="#e07060"/>
  <rect x="797.5" y="0"  width="2.5" height="1200" fill="#e07060"/>

  <!-- Inner coral hairline (10px inset) -->
  <rect x="10"   y="10"    width="780" height="0.8"  fill="#e07060" opacity="0.35"/>
  <rect x="10"   y="1189.2" width="780" height="0.8" fill="#e07060" opacity="0.35"/>
  <rect x="10"   y="10"    width="0.8" height="1180" fill="#e07060" opacity="0.35"/>
  <rect x="789.2" y="10"   width="0.8" height="1180" fill="#e07060" opacity="0.35"/>

  <!-- Photo hole edge hairline -->
  <rect x="20" y="879.5" width="760" height="0.6" fill="#e07060" opacity="0.3"/>

  <!-- Confetti shapes scattered along all 4 white border strips -->
  <!-- Top strip confetti -->
  <rect x="40"  y="5"  width="6" height="6"  fill="#f9c846" opacity="0.7" transform="rotate(20 43 8)"/>
  <circle cx="90"  cy="10" r="3.5" fill="#7ec8e3" opacity="0.65"/>
  <rect x="140" y="3"  width="5" height="8"  fill="#e07060" opacity="0.5" transform="rotate(-15 142 7)"/>
  <circle cx="200" cy="9"  r="2.5" fill="#a8d8a8" opacity="0.7"/>
  <rect x="260" y="5"  width="7" height="4"  fill="#c97b8a" opacity="0.55" transform="rotate(30 263 7)"/>
  <circle cx="320" cy="11" r="3"   fill="#f9c846" opacity="0.6"/>
  <rect x="380" y="4"  width="5" height="5"  fill="#7ec8e3" opacity="0.65" transform="rotate(-25 382 6)"/>
  <circle cx="440" cy="9"  r="2.5" fill="#e07060" opacity="0.55"/>
  <rect x="500" y="6"  width="6" height="4"  fill="#a8d8a8" opacity="0.6" transform="rotate(15 503 8)"/>
  <circle cx="560" cy="10" r="3"   fill="#c97b8a" opacity="0.6"/>
  <rect x="620" y="3"  width="5" height="7"  fill="#f9c846" opacity="0.65" transform="rotate(-30 622 6)"/>
  <circle cx="680" cy="9"  r="2.5" fill="#7ec8e3" opacity="0.7"/>
  <rect x="740" y="5"  width="6" height="5"  fill="#e07060" opacity="0.5" transform="rotate(20 743 7)"/>

  <!-- Left strip confetti -->
  <circle cx="10" cy="80"  r="3"   fill="#f9c846" opacity="0.65"/>
  <rect x="4"  cy="140" width="4" height="7"  fill="#7ec8e3" opacity="0.6" transform="rotate(15 6 143)"/>
  <circle cx="10" cy="220" r="2.5" fill="#a8d8a8" opacity="0.7"/>
  <rect x="3"  y="310" width="5" height="5"  fill="#c97b8a" opacity="0.55" transform="rotate(-20 5 312)"/>
  <circle cx="10" cy="400" r="3"   fill="#e07060" opacity="0.6"/>
  <rect x="4"  y="490" width="4" height="6"  fill="#f9c846" opacity="0.65" transform="rotate(25 6 493)"/>
  <circle cx="10" cy="580" r="2.5" fill="#7ec8e3" opacity="0.6"/>
  <rect x="3"  y="670" width="5" height="4"  fill="#a8d8a8" opacity="0.6" transform="rotate(-10 5 672)"/>
  <circle cx="10" cy="760" r="3"   fill="#c97b8a" opacity="0.55"/>
  <rect x="4"  y="840" width="4" height="5"  fill="#f9c846" opacity="0.7" transform="rotate(30 6 842)"/>

  <!-- Right strip confetti -->
  <circle cx="790" cy="80"  r="3"   fill="#7ec8e3" opacity="0.65"/>
  <rect x="791" y="150" width="4" height="6"  fill="#f9c846" opacity="0.6" transform="rotate(-20 793 153)"/>
  <circle cx="790" cy="240" r="2.5" fill="#e07060" opacity="0.7"/>
  <rect x="792" y="330" width="5" height="4"  fill="#a8d8a8" opacity="0.55" transform="rotate(15 794 332)"/>
  <circle cx="790" cy="420" r="3"   fill="#c97b8a" opacity="0.6"/>
  <rect x="791" y="510" width="4" height="7"  fill="#7ec8e3" opacity="0.65" transform="rotate(-25 793 513)"/>
  <circle cx="790" cy="600" r="2.5" fill="#f9c846" opacity="0.6"/>
  <rect x="792" y="690" width="5" height="5"  fill="#e07060" opacity="0.6" transform="rotate(10 794 692)"/>
  <circle cx="790" cy="780" r="3"   fill="#a8d8a8" opacity="0.55"/>
  <rect x="791" y="850" width="4" height="4"  fill="#c97b8a" opacity="0.7" transform="rotate(-30 793 852)"/>

  <!-- Bottom strip confetti (sparse) -->
  <circle cx="60"  cy="920" r="3"   fill="#f9c846" opacity="0.6"/>
  <rect x="100" y="950" width="5" height="5" fill="#7ec8e3" opacity="0.55" transform="rotate(20 102 952)"/>
  <circle cx="150" cy="980" r="2.5" fill="#a8d8a8" opacity="0.65"/>
  <circle cx="650" cy="920" r="3"   fill="#c97b8a" opacity="0.6"/>
  <rect x="690" y="950" width="5" height="5" fill="#e07060" opacity="0.5" transform="rotate(-15 692 952)"/>
  <circle cx="740" cy="985" r="2.5" fill="#f9c846" opacity="0.65"/>

  <!-- Central star ornament at top of bottom strip -->
  <polygon points="400,883 404,895 416,895 406,903 410,915 400,907 390,915 394,903 384,895 396,895" fill="#e07060" opacity="0.6"/>
  <polygon points="400,887 403,896 412,896 405,902 407,911 400,906 393,911 395,902 388,896 397,896" fill="#f9c846" opacity="0.5"/>
  <circle cx="400" cy="899" r="3" fill="#ffffff" opacity="0.9"/>

  <!-- Horizontal confetti-dots line flanking star -->
  <circle cx="60"  cy="899" r="2" fill="#7ec8e3" opacity="0.5"/>
  <circle cx="80"  cy="899" r="1.5" fill="#f9c846" opacity="0.5"/>
  <circle cx="100" cy="899" r="2" fill="#c97b8a" opacity="0.5"/>
  <circle cx="120" cy="899" r="1.5" fill="#a8d8a8" opacity="0.5"/>
  <circle cx="140" cy="899" r="2" fill="#e07060" opacity="0.5"/>
  <circle cx="160" cy="899" r="1.5" fill="#f9c846" opacity="0.5"/>
  <circle cx="180" cy="899" r="2" fill="#7ec8e3" opacity="0.5"/>
  <circle cx="200" cy="899" r="1.5" fill="#c97b8a" opacity="0.5"/>
  <circle cx="220" cy="899" r="2" fill="#a8d8a8" opacity="0.5"/>
  <circle cx="240" cy="899" r="1.5" fill="#e07060" opacity="0.5"/>
  <circle cx="260" cy="899" r="2" fill="#f9c846" opacity="0.5"/>
  <circle cx="280" cy="899" r="1.5" fill="#7ec8e3" opacity="0.5"/>
  <circle cx="300" cy="899" r="2" fill="#c97b8a" opacity="0.5"/>
  <circle cx="320" cy="899" r="1.5" fill="#a8d8a8" opacity="0.5"/>
  <circle cx="340" cy="899" r="2" fill="#e07060" opacity="0.5"/>
  <circle cx="360" cy="899" r="1.5" fill="#f9c846" opacity="0.5"/>
  <!-- right side -->
  <circle cx="440" cy="899" r="1.5" fill="#f9c846" opacity="0.5"/>
  <circle cx="460" cy="899" r="2" fill="#7ec8e3" opacity="0.5"/>
  <circle cx="480" cy="899" r="1.5" fill="#c97b8a" opacity="0.5"/>
  <circle cx="500" cy="899" r="2" fill="#a8d8a8" opacity="0.5"/>
  <circle cx="520" cy="899" r="1.5" fill="#e07060" opacity="0.5"/>
  <circle cx="540" cy="899" r="2" fill="#f9c846" opacity="0.5"/>
  <circle cx="560" cy="899" r="1.5" fill="#7ec8e3" opacity="0.5"/>
  <circle cx="580" cy="899" r="2" fill="#c97b8a" opacity="0.5"/>
  <circle cx="600" cy="899" r="1.5" fill="#a8d8a8" opacity="0.5"/>
  <circle cx="620" cy="899" r="2" fill="#e07060" opacity="0.5"/>
  <circle cx="640" cy="899" r="1.5" fill="#f9c846" opacity="0.5"/>
  <circle cx="660" cy="899" r="2" fill="#7ec8e3" opacity="0.5"/>
  <circle cx="680" cy="899" r="1.5" fill="#c97b8a" opacity="0.5"/>
  <circle cx="700" cy="899" r="2" fill="#a8d8a8" opacity="0.5"/>
  <circle cx="720" cy="899" r="1.5" fill="#e07060" opacity="0.5"/>
  <circle cx="740" cy="899" r="2" fill="#f9c846" opacity="0.5"/>
</svg>
